<svg xmlns="http://www.w3.org/2000/svg" xmlns:xlink="http://www.w3.org/1999/xlink" version="1.1" x="0px" y="0px" viewBox="0 0 30 37.5" xml:space="preserve"><g transform="translate(-270 -140)"><path xmlns="http://www.w3.org/2000/svg" xmlns:xlink="http://www.w3.org/1999/xlink" d="M298.069,162.42c0,0,1.602,0,1.224,1.506c-0.376,1.508,0.707,3.203,0.707,3.203s-0.565,1.082-2.024,0.611   c-1.461-0.471-2.826-2.496-2.921-3.201c-0.095-0.707-0.659-1.885-1.224-1.838c-0.565,0.047-1.366,0.754-1.178,1.508   s0.424,2.637,0.801,2.779c0.377,0.141,0.988,1.012,0.988,1.012h-1.695c0,0-0.753-0.965-0.8-1.342   c-0.047-0.377-0.754-3.391-1.225-3.344c-0.472,0.047-1.178-0.094-1.508-0.377c-0.329-0.283-0.706,1.035-1.177,1.555   c-0.471,0.518-0.801,2.4-0.471,2.59c0.329,0.188,0.917,0.918,0.917,0.918h-1.624l-0.659-1.012c0,0,0.282-2.262,0.377-2.592   c0.094-0.328,0.329-2.637-0.235-2.59c-0.566,0.047-3.015,1.178-4.71,0.895c-1.696-0.281-2.685-1.225-3.438-0.094   c-0.754,1.131-1.79,2.213-1.46,2.732c0.329,0.518,1.745,1.742,1.745,1.742l0.286,0.918h-1.561l-0.754-0.918   c0,0-2.072-3.439-2.449-3.439c-0.377,0-0.895,1.744-0.848,2.309c0.048,0.564,0.188,0.887,0.188,0.887l0.707,0.566V168h-1.602   l-0.518-1.02l0.142-4.467l1.036-1.932c0,0-1.258-4.179-1.291-5.203c-0.006-0.17,0.208-2.19,0.208-2.19l-0.527,0.472l-0.683,6.918   c0,0,0.183,1.041,0.418,1.275c0.235,0.236-0.135,1.234-0.135,1.234l-0.68-1.123L270,160.629c0,0,0.251-7.125,0.515-7.439   c0.265-0.314,1.181-2.403,3.3-2.12c2.119,0.282,5.98,0.424,7.441,0c1.46-0.424,4.804-1.366,7.347-0.659   c2.544,0.706,4.522,1.508,5.417,2.967c0.895,1.461,1.355,3.133,1.355,3.133l1.846,3.461l0.565-0.941c0,0,0.942,0.234,0.989,0.848   C298.823,160.488,298.069,162.42,298.069,162.42z"/></g><text x="0" y="45" fill="#000000" font-size="5px" font-weight="bold" font-family="'Helvetica Neue', Helvetica, Arial-Unicode, Arial, Sans-serif">Created by Hea Poh Lin</text><text x="0" y="50" fill="#000000" font-size="5px" font-weight="bold" font-family="'Helvetica Neue', Helvetica, Arial-Unicode, Arial, Sans-serif">from the Noun Project</text></svg>