<svg xmlns="http://www.w3.org/2000/svg" xmlns:xlink="http://www.w3.org/1999/xlink" version="1.1" x="0px" y="0px" viewBox="0 0 30 37.5" xml:space="preserve"><g transform="translate(-210 -200)"><path xmlns="http://www.w3.org/2000/svg" xmlns:xlink="http://www.w3.org/1999/xlink" d="M237.184,219.012c-0.521-1.564-0.782-1.93-0.209-2.557c0.574-0.625,1.722-1.514,0.679-2.766   c-1.252,0.418-2.035,2.191-2.035,2.191s-10.019-3.547-14.298-3.547c-3.497,0-6.852,1.604-8.246,3.783   c-0.487,0.004-1.14,0.098-1.727,0.492c-0.659,0.443-1.075,1.15-1.236,2.1c-0.046,0.271,0.138,0.529,0.41,0.576   c0.028,0.004,0.057,0.006,0.084,0.006c0.239,0,0.451-0.172,0.492-0.416c0.112-0.666,0.383-1.146,0.803-1.432   c0.215-0.146,0.449-0.227,0.675-0.273c-0.051,0.16-0.095,0.322-0.124,0.486c-0.521,2.922,1.929,5.508,1.929,5.508l-0.155,0.598   l0.626,2.242l0.547,1.996h2l-0.395-0.834c0,0-0.964-0.467-1.003-0.641c-0.104-0.469,0.364-2.838,0.364-2.838h0.469l0.128,2.479   l0.979,1.834h2.458l-0.458-0.791l-1.436-0.631l-0.521-2.191l0.415-0.387c0,0,4.938,1.344,8.344-0.125l0.25,1.5L226.896,228h2.14   l-0.471-1.084c0,0-0.625-0.59-0.625-0.807c0-0.574,0.633-1.617,0.633-1.617l1.462,3.508h2.087l-0.365-1.16l-1.2-0.887l-0.313-2.766   c0,0,2.087-0.418,3.183-0.836c1.096-0.418,2.087,0.418,3.861-0.104c1.773-0.521,1.773-0.521,1.773-0.521l0.835-1.254   C239.896,220.473,237.705,220.578,237.184,219.012z"/></g><text x="0" y="45" fill="#000000" font-size="5px" font-weight="bold" font-family="'Helvetica Neue', Helvetica, Arial-Unicode, Arial, Sans-serif">Created by Hea Poh Lin</text><text x="0" y="50" fill="#000000" font-size="5px" font-weight="bold" font-family="'Helvetica Neue', Helvetica, Arial-Unicode, Arial, Sans-serif">from the Noun Project</text></svg>